<svg xmlns="http://www.w3.org/2000/svg" viewBox="0 0 641.69 264.67"><defs><style>.cls-1{fill:#5afeae;}.cls-2{fill:#292929;}</style></defs><g id="_3" data-name="3"><path class="cls-1" d="M750.16,644.33H273.84a82.64,82.64,0,0,1-82.68-82.68v-99.3a82.64,82.64,0,0,1,82.68-82.68H750.16a82.64,82.64,0,0,1,82.68,82.68v99.3A82.64,82.64,0,0,1,750.16,644.33Z" transform="translate(-191.16 -379.67)"/><path class="cls-2" d="M717.32,464.72,684.49,590.13v.4H710.2L743,465.12H717.32Zm-405.9,71.21a26.45,26.45,0,0,1-12.26,2.77c-9.1,0-14.24-1.58-15-9.1V488.86h0V465.52l-22.95,2.76c15.43-3.16,24.13-15,24.13-27.29v-7.52H259.6v35.21l-1.59.4V534c.8,18.19,13.06,29.27,32.45,29.27A50.41,50.41,0,0,0,311,558.88h0l.39-23Z" transform="translate(-191.16 -379.67)"/><path class="cls-2" d="M315.38,460l-72,11.07v18.2l72-11.08Zm0,26.9-72,11.08v17.4l72-11.07Zm80.7,8.31c-1.18-20.18-13.84-32.44-34.41-32.44-11.87,0-21.76,4.74-28.49,13.45S322.9,497.56,322.9,513s3.56,28.09,10.28,36.79,16.62,13.06,28.49,13.06c20.57,0,33.23-11.87,34.41-32.44v30.46H421.8V465.12l-25.72,4v26.11Zm1.59,17.8c0,17.8-9.5,29.67-24.14,29.67-15,0-24.13-11.08-24.13-29.67s9.1-29.67,24.13-29.67a21.94,21.94,0,0,1,17.81,8.31c4,5.14,6.33,12.66,6.33,21.36Zm98.9-50.24c-20.57,0-33.23,11.86-34.42,32.44V437l-25.71,4V560.86h25.71V530.4c1.19,20.57,13.85,32.44,34.42,32.44,24.13,0,38.77-18.6,38.77-49.85S520.7,462.75,496.57,462.75ZM485.1,542.66C470.46,542.66,461,531.19,461,513c0-8.7,2.37-16.22,6.33-21.36q6.52-8.31,17.8-8.31c15,0,24.13,11.08,24.13,29.67s-9.1,29.67-24.13,29.67ZM605,462.75c-20.57,0-33.23,11.86-34.42,32.44V437l-25.71,4V560.86h25.71V530.4C571.74,551,584.4,562.84,605,562.84c24.13,0,38.77-18.6,38.77-49.85S629.1,462.75,605,462.75ZM593.5,542.66c-14.64,0-24.14-11.47-24.14-29.67,0-8.7,2.38-16.22,6.33-21.36q6.54-8.31,17.81-8.31c15,0,24.13,11.08,24.13,29.67s-9.1,29.67-24.13,29.67Zm50.24-77.94H671l22.15,96.14H668.66ZM764,474.61V467.1h-3.17v-1.58h8.31v1.58H766v7.51Zm5.54,0v-9.49h3.16l1.58,4.35c.4,1.19.79,1.58.79,2,0-.4.4-.79.8-2l1.58-4.35h3.16v9.49h-2V467.1l-2.76,7.51h-2l-2.38-7.51v7.51Z" transform="translate(-191.16 -379.67)"/></g></svg>